<mxfile host="Electron" modified="2023-05-18T23:58:43.132Z" agent="Mozilla/5.0 (Macintosh; Intel Mac OS X 10_15_7) AppleWebKit/537.36 (KHTML, like Gecko) draw.io/21.2.8 Chrome/112.0.5615.165 Electron/24.2.0 Safari/537.36" etag="BNpgqoGFm2RIe-AAi2Dc" version="21.2.8" type="device">
  <diagram name="Page-1" id="Page-1">
    <mxGraphModel dx="1179" dy="769" grid="1" gridSize="10" guides="1" tooltips="1" connect="1" arrows="1" fold="1" page="1" pageScale="1" pageWidth="850" pageHeight="1100" math="0" shadow="0">
      <root>
        <mxCell id="0" />
        <mxCell id="1" value="Connector" parent="0" />
        <mxCell id="xCHIgen64dAe4VgpeUQL-77" value="" style="rounded=0;whiteSpace=wrap;html=1;fillColor=none;" parent="1" vertex="1">
          <mxGeometry x="173" y="220" width="740" height="140" as="geometry" />
        </mxCell>
        <mxCell id="w7znvFa7csND61I8HL3Y-65" value="" style="rounded=0;whiteSpace=wrap;html=1;fillColor=none;" parent="1" vertex="1">
          <mxGeometry x="174" y="370" width="740" height="220" as="geometry" />
        </mxCell>
        <mxCell id="w7znvFa7csND61I8HL3Y-64" value="" style="rounded=0;whiteSpace=wrap;html=1;fillColor=none;" parent="1" vertex="1">
          <mxGeometry x="173.56" y="20" width="740" height="190" as="geometry" />
        </mxCell>
        <UserObject label="&lt;div style=&quot;font-size: 1px&quot;&gt;&lt;font style=&quot;font-size:14.11px;font-family:Calibri;color:#000000;direction:ltr;letter-spacing:0px;line-height:120%;opacity:1&quot;&gt;Service Request&lt;br/&gt;&lt;/font&gt;&lt;/div&gt;" link="StructureDefinition-SDOHCC-ServiceRequest.html" linkTarget="_blank" id="10">
          <mxCell style="verticalAlign=middle;align=center;vsdxID=10;fillColor=#66B2FF;gradientColor=none;shape=stencil(vVTbboMwDP2aPBKFOMB47rr/iNoA0TKCQrayv2+QYSsp8FTx5suxrXNkm8Cpb2SnCGe9d/ZT3fTVNwTeCee6bZTTPlgEzgROlXWqdva7vaLfyRE5Wl/2Z+wwYF3KxhLOfmcX/Q/EGt0+YMuXYaW7hJybsbQARLsJDkDLAkPDssHcMM8oKydEIgfdJ8566bVtMT+hjXS1SsK4pDKyXqT6m1LdU3iVTDwcBC3TPT559sQnX/KJ9GFHUVmdu0H6FchYmbciUkZQIRbKbEl9gDhbK7bKJWWUi4hM9rfJ++d1yM7uHWAw/j9CpY3Bh/KYjz9ICOH3gfMd);strokeColor=#330000;strokeWidth=2;points=[[0,0.5,0],[1,0.5,0],[0.5,1,0],[0.5,0,0],[0.03,0.04,0],[0.97,0.04,0],[0.03,0.96,0],[0.97,0.96,0]];labelBackgroundColor=none;rounded=0;html=1;whiteSpace=wrap;" parent="1" vertex="1">
            <mxGeometry x="499.99999999999994" y="387" width="152" height="43" as="geometry" />
          </mxCell>
        </UserObject>
        <UserObject label="&lt;div style=&quot;font-size: 1px&quot;&gt;&lt;font style=&quot;font-size:14.11px;font-family:Calibri;color:#000000;direction:ltr;letter-spacing:0px;line-height:120%;opacity:1&quot;&gt;Procedure&lt;br/&gt;&lt;/font&gt;&lt;/div&gt;" link="StructureDefinition-SDOHCC-Procedure.html" linkTarget="_blank" id="11">
          <mxCell style="verticalAlign=middle;align=center;vsdxID=11;fillColor=#66B2FF;gradientColor=none;shape=stencil(vVTbboMwDP2aPBKFOMB47rr/iNoA0TKCQrayv2+QYSsp8FTx5suxrXNkm8Cpb2SnCGe9d/ZT3fTVNwTeCee6bZTTPlgEzgROlXWqdva7vaLfyRE5Wl/2Z+wwYF3KxhLOfmcX/Q/EGt0+YMuXYaW7hJybsbQARLsJDkDLAkPDssHcMM8oKydEIgfdJ8566bVtMT+hjXS1SsK4pDKyXqT6m1LdU3iVTDwcBC3TPT559sQnX/KJ9GFHUVmdu0H6FchYmbciUkZQIRbKbEl9gDhbK7bKJWWUi4hM9rfJ++d1yM7uHWAw/j9CpY3Bh/KYjz9ICOH3gfMd);strokeColor=#330000;strokeWidth=2;points=[[0,0.5,0],[1,0.5,0],[0.5,1,0],[0.5,0,0],[0.03,0.04,0],[0.97,0.04,0],[0.03,0.96,0],[0.97,0.96,0]];labelBackgroundColor=none;rounded=0;html=1;whiteSpace=wrap;" parent="1" vertex="1">
            <mxGeometry x="499.99999999999994" y="520" width="152" height="43" as="geometry" />
          </mxCell>
        </UserObject>
        <UserObject label="&lt;div style=&quot;font-size: 1px&quot;&gt;&lt;font style=&quot;font-size:14.11px;font-family:Calibri;color:#000000;direction:ltr;letter-spacing:0px;line-height:120%;opacity:1&quot;&gt;Consent&lt;br/&gt;&lt;/font&gt;&lt;/div&gt;" link="StructureDefinition-SDOHCC-Consent.html" linkTarget="_blank" id="12">
          <mxCell style="verticalAlign=middle;align=center;vsdxID=14;fillColor=#66B2FF;gradientColor=none;shape=stencil(vVTbboMwDP2aPBKFOMB47rr/iNoA0TKCQrayv2+QYSsp8FTx5suxrXNkm8Cpb2SnCGe9d/ZT3fTVNwTeCee6bZTTPlgEzgROlXWqdva7vaLfyRE5Wl/2Z+wwYF3KxhLOfmcX/Q/EGt0+YMuXYaW7hJybsbQARLsJDkDLAkPDssHcMM8oKydEIgfdJ8566bVtMT+hjXS1SsK4pDKyXqT6m1LdU3iVTDwcBC3TPT559sQnX/KJ9GFHUVmdu0H6FchYmbciUkZQIRbKbEl9gDhbK7bKJWWUi4hM9rfJ++d1yM7uHWAw/j9CpY3Bh/KYjz9ICOH3gfMd);strokeColor=#330000;strokeWidth=2;points=[[0,0.5,0],[1,0.5,0],[0.5,1,0],[0.5,0,0],[0.03,0.04,0],[0.97,0.04,0],[0.03,0.96,0],[0.97,0.96,0]];labelBackgroundColor=none;rounded=0;html=1;whiteSpace=wrap;" parent="1" vertex="1">
            <mxGeometry x="754" y="387" width="152" height="43" as="geometry" />
          </mxCell>
        </UserObject>
        <UserObject label="&lt;div style=&quot;font-size: 1px&quot;&gt;&lt;font style=&quot;font-size:14.11px;font-family:Calibri;color:#000000;direction:ltr;letter-spacing:0px;line-height:120%;opacity:1&quot;&gt;Task for Referral Mgmt&lt;br&gt;&lt;/font&gt;&lt;/div&gt;" link="StructureDefinition-SDOHCC-TaskForReferralManagement.html" linkTarget="_blank" id="13">
          <mxCell style="verticalAlign=middle;align=center;vsdxID=25;fillColor=#66B2FF;gradientColor=none;shape=stencil(vVTbboMwDP2aPBKFOMB47rr/iNoA0TKCQrayv2+QYSsp8FTx5suxrXNkm8Cpb2SnCGe9d/ZT3fTVNwTeCee6bZTTPlgEzgROlXWqdva7vaLfyRE5Wl/2Z+wwYF3KxhLOfmcX/Q/EGt0+YMuXYaW7hJybsbQARLsJDkDLAkPDssHcMM8oKydEIgfdJ8566bVtMT+hjXS1SsK4pDKyXqT6m1LdU3iVTDwcBC3TPT559sQnX/KJ9GFHUVmdu0H6FchYmbciUkZQIRbKbEl9gDhbK7bKJWWUi4hM9rfJ++d1yM7uHWAw/j9CpY3Bh/KYjz9ICOH3gfMd);strokeColor=#330000;strokeWidth=2;points=[[0,0.5,0],[1,0.5,0],[0.5,1,0],[0.5,0,0],[0.03,0.04,0],[0.97,0.04,0],[0.03,0.96,0],[0.97,0.96,0]];labelBackgroundColor=none;rounded=0;html=1;whiteSpace=wrap;" parent="1" vertex="1">
            <mxGeometry x="220.99999999999994" y="457" width="152" height="43" as="geometry" />
          </mxCell>
        </UserObject>
        <mxCell id="16" value="&lt;div style=&quot;font-size: 20px;&quot;&gt;&lt;font style=&quot;font-size: 20px; font-family: Calibri; direction: ltr; letter-spacing: 0px; line-height: 120%; opacity: 1;&quot;&gt;Referral Management&amp;nbsp;&lt;br style=&quot;font-size: 20px;&quot;&gt;&lt;/font&gt;&lt;/div&gt;" style="verticalAlign=middle;align=center;vsdxID=91;fillColor=none;gradientColor=none;shape=stencil(nZBLDoAgDERP0z3SIyjew0SURgSD+Lu9kMZoXLhwN9O+tukAlrNpJg1SzDH4QW/URgNYgZTkjA4UkwJUgGXng+6DX1zLfmoymdXo17xh5zmRJ6Q42BWCfc2oJfdAr+Yv+AP9Cb7OJ3H/2JG1HNGz/84klThPVCc=);strokeColor=none;points=[];labelBackgroundColor=none;rounded=0;html=1;whiteSpace=wrap;fontSize=20;fontColor=#33001A;" parent="1" vertex="1">
          <mxGeometry x="29.44" y="450" width="130" height="28" as="geometry" />
        </mxCell>
        <mxCell id="20" value="&lt;div style=&quot;font-size: 1px&quot;&gt;&lt;font style=&quot;font-size:14.11px;font-family:Calibri;color:#000000;direction:ltr;letter-spacing:0px;line-height:120%;opacity:1&quot;&gt;Observation &lt;br&gt;Screening or Assessment&lt;/font&gt;&lt;/div&gt;" style="verticalAlign=middle;align=center;vsdxID=112;fillColor=#66B2FF;gradientColor=none;shape=stencil(vVTbboMwDP2aPBKFOMB47rr/iNoA0TKCQrayv2+QYSsp8FTx5suxrXNkm8Cpb2SnCGe9d/ZT3fTVNwTeCee6bZTTPlgEzgROlXWqdva7vaLfyRE5Wl/2Z+wwYF3KxhLOfmcX/Q/EGt0+YMuXYaW7hJybsbQARLsJDkDLAkPDssHcMM8oKydEIgfdJ8566bVtMT+hjXS1SsK4pDKyXqT6m1LdU3iVTDwcBC3TPT559sQnX/KJ9GFHUVmdu0H6FchYmbciUkZQIRbKbEl9gDhbK7bKJWWUi4hM9rfJ++d1yM7uHWAw/j9CpY3Bh/KYjz9ICOH3gfMd);strokeColor=#330000;strokeWidth=2;points=[[0,0.5,0],[1,0.5,0],[0.5,1,0],[0.5,0,0],[0.03,0.04,0],[0.97,0.04,0],[0.03,0.96,0],[0.97,0.96,0]];labelBackgroundColor=none;rounded=0;html=1;whiteSpace=wrap;" parent="1" vertex="1">
          <mxGeometry x="398.99999999999994" y="457" width="152" height="43" as="geometry" />
        </mxCell>
        <UserObject label="&lt;div style=&quot;font-size: 1px&quot;&gt;&lt;font style=&quot;font-size:14.11px;font-family:Calibri;color:#000000;direction:ltr;letter-spacing:0px;line-height:120%;opacity:1&quot;&gt;Condition&lt;br/&gt;&lt;/font&gt;&lt;/div&gt;" link="StructureDefinition-SDOHCC-Condition.html" linkTarget="_blank" id="21">
          <mxCell style="verticalAlign=middle;align=center;vsdxID=115;fillColor=#66B2FF;gradientColor=none;shape=stencil(vVTbboMwDP2aPBKFOMB47rr/iNoA0TKCQrayv2+QYSsp8FTx5suxrXNkm8Cpb2SnCGe9d/ZT3fTVNwTeCee6bZTTPlgEzgROlXWqdva7vaLfyRE5Wl/2Z+wwYF3KxhLOfmcX/Q/EGt0+YMuXYaW7hJybsbQARLsJDkDLAkPDssHcMM8oKydEIgfdJ8566bVtMT+hjXS1SsK4pDKyXqT6m1LdU3iVTDwcBC3TPT559sQnX/KJ9GFHUVmdu0H6FchYmbciUkZQIRbKbEl9gDhbK7bKJWWUi4hM9rfJ++d1yM7uHWAw/j9CpY3Bh/KYjz9ICOH3gfMd);strokeColor=#330000;strokeWidth=2;points=[[0,0.5,0],[1,0.5,0],[0.5,1,0],[0.5,0,0],[0.03,0.04,0],[0.97,0.04,0],[0.03,0.96,0],[0.97,0.96,0]];labelBackgroundColor=none;rounded=0;html=1;whiteSpace=wrap;" parent="1" vertex="1">
            <mxGeometry x="602" y="457" width="152" height="43" as="geometry" />
          </mxCell>
        </UserObject>
        <mxCell id="22" value="&lt;div style=&quot;font-size: 1px&quot;&gt;&lt;font style=&quot;font-size: 12.7px; font-family: Calibri; direction: ltr; letter-spacing: 0px; line-height: 120%; opacity: 1;&quot;&gt;&lt;font color=&quot;#33001a&quot;&gt;Reason = ReasonReference&lt;/font&gt;&lt;br&gt;&lt;/font&gt;&lt;/div&gt;" style="verticalAlign=middle;align=center;vsdxID=121;fillColor=none;gradientColor=none;shape=stencil(nZBLDoAgDERP0z3SIyjew0SURgSD+Lu9kMZoXLhwN9O+tukAlrNpJg1SzDH4QW/URgNYgZTkjA4UkwJUgGXng+6DX1zLfmoymdXo17xh5zmRJ6Q42BWCfc2oJfdAr+Yv+AP9Cb7OJ3H/2JG1HNGz/84klThPVCc=);strokeColor=none;points=[];labelBackgroundColor=none;rounded=0;html=1;whiteSpace=wrap;fontColor=#0000CC;" parent="1" vertex="1">
          <mxGeometry x="748" y="528" width="165" height="28" as="geometry" />
        </mxCell>
        <UserObject label="&lt;div style=&quot;font-size: 1px&quot;&gt;&lt;font style=&quot;font-size:14.11px;font-family:Calibri;color:#000000;direction:ltr;letter-spacing:0px;line-height:120%;opacity:1&quot;&gt;Goal&lt;br/&gt;&lt;/font&gt;&lt;/div&gt;" link="StructureDefinition-SDOHCC-Goal.html" linkTarget="_blank" id="23">
          <mxCell style="verticalAlign=middle;align=center;vsdxID=123;fillColor=#66B2FF;gradientColor=none;shape=stencil(vVTbboMwDP2aPBKFOMB47rr/iNoA0TKCQrayv2+QYSsp8FTx5suxrXNkm8Cpb2SnCGe9d/ZT3fTVNwTeCee6bZTTPlgEzgROlXWqdva7vaLfyRE5Wl/2Z+wwYF3KxhLOfmcX/Q/EGt0+YMuXYaW7hJybsbQARLsJDkDLAkPDssHcMM8oKydEIgfdJ8566bVtMT+hjXS1SsK4pDKyXqT6m1LdU3iVTDwcBC3TPT559sQnX/KJ9GFHUVmdu0H6FchYmbciUkZQIRbKbEl9gDhbK7bKJWWUi4hM9rfJ++d1yM7uHWAw/j9CpY3Bh/KYjz9ICOH3gfMd);strokeColor=#330000;strokeWidth=2;points=[[0,0.5,0],[1,0.5,0],[0.5,1,0],[0.5,0,0],[0.03,0.04,0],[0.97,0.04,0],[0.03,0.96,0],[0.97,0.96,0]];labelBackgroundColor=none;rounded=0;html=1;whiteSpace=wrap;" parent="1" vertex="1">
            <mxGeometry x="220.99999999999994" y="387" width="152" height="43" as="geometry" />
          </mxCell>
        </UserObject>
        <mxCell id="24" value="&lt;div style=&quot;font-size: 1px&quot;&gt;&lt;font style=&quot;font-size:11.29px;font-family:Calibri;color:#000000;direction:ltr;letter-spacing:0px;line-height:120%;opacity:1&quot;&gt;&lt;br&gt;&lt;/font&gt;&lt;/div&gt;" style="vsdxID=124;edgeStyle=none;startArrow=none;endArrow=block;startSize=5;endSize=5;strokeWidth=2;strokeColor=#0000CC;spacingTop=0;spacingBottom=0;spacingLeft=0;spacingRight=0;verticalAlign=middle;html=1;labelBackgroundColor=#ffffff;rounded=0;align=center;exitX=0;exitY=0.5116279069767442;exitDx=0;exitDy=0;exitPerimeter=0;entryX=1;entryY=0.5116279069767442;entryDx=0;entryDy=0;entryPerimeter=0;" parent="1" source="10" target="23" edge="1">
          <mxGeometry relative="1" as="geometry">
            <mxPoint as="offset" />
            <Array as="points" />
          </mxGeometry>
        </mxCell>
        <mxCell id="26" value="&lt;div style=&quot;font-size: 1px&quot;&gt;&lt;font style=&quot;font-size:11.29px;font-family:Calibri;color:#000000;direction:ltr;letter-spacing:0px;line-height:120%;opacity:1&quot;&gt;&lt;br&gt;&lt;/font&gt;&lt;/div&gt;" style="vsdxID=120;edgeStyle=none;startArrow=none;endArrow=block;startSize=5;endSize=5;strokeWidth=2;strokeColor=#0000CC;spacingTop=0;spacingBottom=0;spacingLeft=0;spacingRight=0;verticalAlign=middle;html=1;labelBackgroundColor=#ffffff;rounded=0;align=center;exitX=0;exitY=0.5116279069767442;exitDx=0;exitDy=0;exitPerimeter=0;entryX=0.5;entryY=1;entryDx=0;entryDy=0;entryPerimeter=0;" parent="1" source="11" target="20" edge="1">
          <mxGeometry relative="1" as="geometry">
            <Array as="points" />
          </mxGeometry>
        </mxCell>
        <mxCell id="27" value="&lt;div style=&quot;font-size: 1px&quot;&gt;&lt;font style=&quot;font-size:11.29px;font-family:Calibri;color:#000000;direction:ltr;letter-spacing:0px;line-height:120%;opacity:1&quot;&gt;&lt;br&gt;&lt;/font&gt;&lt;/div&gt;" style="vsdxID=119;edgeStyle=none;startArrow=none;endArrow=block;startSize=5;endSize=5;strokeWidth=2;strokeColor=#0000CC;spacingTop=0;spacingBottom=0;spacingLeft=0;spacingRight=0;verticalAlign=middle;html=1;labelBackgroundColor=#ffffff;rounded=0;align=center;exitX=0.9736842105263158;exitY=0.9069767441860465;exitDx=0;exitDy=0;exitPerimeter=0;entryX=0.5;entryY=0;entryDx=0;entryDy=0;entryPerimeter=0;" parent="1" source="10" target="21" edge="1">
          <mxGeometry relative="1" as="geometry">
            <Array as="points" />
          </mxGeometry>
        </mxCell>
        <mxCell id="28" value="&lt;div style=&quot;font-size: 1px&quot;&gt;&lt;font style=&quot;font-size:11.29px;font-family:Calibri;color:#000000;direction:ltr;letter-spacing:0px;line-height:120%;opacity:1&quot;&gt;&lt;br&gt;&lt;/font&gt;&lt;/div&gt;" style="vsdxID=117;edgeStyle=none;startArrow=none;endArrow=block;startSize=5;endSize=5;strokeWidth=2;strokeColor=#0000CC;spacingTop=0;spacingBottom=0;spacingLeft=0;spacingRight=0;verticalAlign=middle;html=1;labelBackgroundColor=#ffffff;rounded=0;align=center;exitX=0.506578947368421;exitY=0;exitDx=0;exitDy=0;exitPerimeter=0;entryX=0.506578947368421;entryY=1;entryDx=0;entryDy=0;entryPerimeter=0;" parent="1" source="11" target="10" edge="1">
          <mxGeometry relative="1" as="geometry">
            <mxPoint x="12" as="offset" />
            <Array as="points" />
          </mxGeometry>
        </mxCell>
        <mxCell id="29" value="&lt;div style=&quot;font-size: 1px&quot;&gt;&lt;font style=&quot;font-size:11.29px;font-family:Calibri;color:#000000;direction:ltr;letter-spacing:0px;line-height:120%;opacity:1&quot;&gt;&lt;br&gt;&lt;/font&gt;&lt;/div&gt;" style="vsdxID=116;edgeStyle=none;startArrow=none;endArrow=block;startSize=5;endSize=5;strokeWidth=2;strokeColor=#0000CC;spacingTop=0;spacingBottom=0;spacingLeft=0;spacingRight=0;verticalAlign=middle;html=1;labelBackgroundColor=#ffffff;rounded=0;align=center;exitX=0.03289473684210526;exitY=0.9069767441860465;exitDx=0;exitDy=0;exitPerimeter=0;entryX=0.5;entryY=0;entryDx=0;entryDy=0;entryPerimeter=0;" parent="1" source="10" target="20" edge="1">
          <mxGeometry relative="1" as="geometry">
            <Array as="points" />
          </mxGeometry>
        </mxCell>
        <mxCell id="34" value="&lt;div style=&quot;font-size: 1px&quot;&gt;&lt;font style=&quot;font-size:11.29px;font-family:Calibri;color:#000000;direction:ltr;letter-spacing:0px;line-height:120%;opacity:1&quot;&gt;&lt;br&gt;&lt;/font&gt;&lt;/div&gt;" style="vsdxID=92;edgeStyle=none;startArrow=none;endArrow=block;startSize=5;endSize=5;strokeWidth=2;strokeColor=#0000CC;spacingTop=0;spacingBottom=0;spacingLeft=0;spacingRight=0;verticalAlign=middle;html=1;labelBackgroundColor=#ffffff;rounded=0;align=center;exitX=1.006578947368421;exitY=0.5116279069767442;exitDx=0;exitDy=0;exitPerimeter=0;entryX=0.5;entryY=1;entryDx=0;entryDy=0;entryPerimeter=0;" parent="1" source="11" target="21" edge="1">
          <mxGeometry relative="1" as="geometry">
            <Array as="points" />
          </mxGeometry>
        </mxCell>
        <mxCell id="36" value="&lt;div style=&quot;font-size: 1px&quot;&gt;&lt;font style=&quot;font-size:11.29px;font-family:Calibri;color:#000000;direction:ltr;letter-spacing:0px;line-height:120%;opacity:1&quot;&gt;&lt;br&gt;&lt;/font&gt;&lt;/div&gt;" style="vsdxID=80;edgeStyle=none;startArrow=none;endArrow=block;startSize=5;endSize=5;strokeWidth=2;strokeColor=#0000CC;spacingTop=0;spacingBottom=0;spacingLeft=0;spacingRight=0;verticalAlign=middle;html=1;labelBackgroundColor=#ffffff;rounded=0;align=center;exitX=0.9736842105263158;exitY=0.9069767441860465;exitDx=0;exitDy=0;exitPerimeter=0;entryX=0.03289473684210526;entryY=0.9069767441860465;entryDx=0;entryDy=0;entryPerimeter=0;" parent="1" source="13" target="11" edge="1">
          <mxGeometry relative="1" as="geometry">
            <mxPoint as="offset" />
            <Array as="points" />
          </mxGeometry>
        </mxCell>
        <mxCell id="39" value="&lt;div style=&quot;font-size: 1px&quot;&gt;&lt;font style=&quot;font-size:11.29px;font-family:Calibri;color:#000000;direction:ltr;letter-spacing:0px;line-height:120%;opacity:1&quot;&gt;&lt;br&gt;&lt;/font&gt;&lt;/div&gt;" style="vsdxID=26;edgeStyle=none;startArrow=none;endArrow=block;startSize=5;endSize=5;strokeWidth=2;strokeColor=#0000CC;spacingTop=0;spacingBottom=0;spacingLeft=0;spacingRight=0;verticalAlign=middle;html=1;labelBackgroundColor=#ffffff;rounded=0;align=center;exitX=0.9736842105263158;exitY=0.09302325581395349;exitDx=0;exitDy=0;exitPerimeter=0;entryX=0;entryY=0.5116279069767442;entryDx=0;entryDy=0;entryPerimeter=0;" parent="1" source="13" target="10" edge="1">
          <mxGeometry relative="1" as="geometry">
            <mxPoint x="-1" as="offset" />
            <Array as="points" />
          </mxGeometry>
        </mxCell>
        <mxCell id="40" value="&lt;div style=&quot;font-size: 1px&quot;&gt;&lt;font style=&quot;font-size: 11.29px; font-family: Calibri; direction: ltr; letter-spacing: 0px; line-height: 120%; opacity: 1;&quot;&gt;&lt;br&gt;&lt;/font&gt;&lt;/div&gt;" style="vsdxID=79;edgeStyle=none;startArrow=none;endArrow=block;startSize=5;endSize=5;strokeWidth=2;strokeColor=#0000CC;spacingTop=0;spacingBottom=0;spacingLeft=0;spacingRight=0;verticalAlign=middle;html=1;labelBackgroundColor=#ffffff;rounded=0;align=center;exitX=1.006578947368421;exitY=0.5116279069767442;exitDx=0;exitDy=0;exitPerimeter=0;entryX=0;entryY=0.5116279069767442;entryDx=0;entryDy=0;entryPerimeter=0;fontColor=#33001A;" parent="1" source="10" target="12" edge="1">
          <mxGeometry relative="1" as="geometry">
            <mxPoint x="-1" as="offset" />
            <Array as="points" />
          </mxGeometry>
        </mxCell>
        <mxCell id="eKrTu84sjvPDRuvb-8gR-76" value="partOf" style="curved=1;endArrow=classic;html=1;rounded=0;strokeColor=#0000CC;strokeWidth=2;" parent="1" target="13" edge="1">
          <mxGeometry x="0.2527" y="-19" width="50" height="50" relative="1" as="geometry">
            <mxPoint x="249.44" y="457" as="sourcePoint" />
            <mxPoint x="100.99999999999994" y="451.72" as="targetPoint" />
            <Array as="points">
              <mxPoint x="199.44" y="417" />
              <mxPoint x="201.99999999999994" y="482" />
              <mxPoint x="241.99999999999994" y="532" />
            </Array>
            <mxPoint as="offset" />
          </mxGeometry>
        </mxCell>
        <mxCell id="zkYiBkDDfXd4Fk8gtW7x-52" value="&lt;span style=&quot;color: rgb(0, 0, 0); font-family: Calibri; font-size: 11.29px; background-color: rgb(255, 255, 255);&quot;&gt;basedOn&lt;/span&gt;" style="text;html=1;align=center;verticalAlign=middle;resizable=0;points=[];autosize=1;strokeColor=none;fillColor=none;fontSize=14;fontColor=#33001A;" parent="1" vertex="1">
          <mxGeometry x="572" y="495" width="60" height="30" as="geometry" />
        </mxCell>
        <mxCell id="zkYiBkDDfXd4Fk8gtW7x-53" value="&lt;span style=&quot;color: rgb(0, 0, 0); font-family: Calibri; font-size: 11.29px; background-color: rgb(255, 255, 255);&quot;&gt;Reason&lt;/span&gt;" style="text;html=1;align=center;verticalAlign=middle;resizable=0;points=[];autosize=1;strokeColor=none;fillColor=none;fontSize=14;fontColor=#33001A;" parent="1" vertex="1">
          <mxGeometry x="662" y="520" width="50" height="20" as="geometry" />
        </mxCell>
        <mxCell id="zkYiBkDDfXd4Fk8gtW7x-54" value="&lt;meta charset=&quot;utf-8&quot;&gt;&lt;span style=&quot;color: rgb(0, 0, 0); font-family: Calibri; font-size: 11.29px; font-style: normal; font-variant-ligatures: normal; font-variant-caps: normal; font-weight: 400; letter-spacing: normal; orphans: 2; text-align: center; text-indent: 0px; text-transform: none; widows: 2; word-spacing: 0px; -webkit-text-stroke-width: 0px; background-color: rgb(255, 255, 255); text-decoration-thickness: initial; text-decoration-style: initial; text-decoration-color: initial; float: none; display: inline !important;&quot;&gt;Reason&lt;/span&gt;" style="text;whiteSpace=wrap;html=1;fontSize=14;fontColor=#33001A;" parent="1" vertex="1">
          <mxGeometry x="662" y="412" width="60" height="30" as="geometry" />
        </mxCell>
        <mxCell id="zkYiBkDDfXd4Fk8gtW7x-55" value="&lt;meta charset=&quot;utf-8&quot;&gt;&lt;span style=&quot;color: rgb(0, 0, 0); font-family: Calibri; font-size: 11.29px; font-style: normal; font-variant-ligatures: normal; font-variant-caps: normal; font-weight: 400; letter-spacing: normal; orphans: 2; text-align: center; text-indent: 0px; text-transform: none; widows: 2; word-spacing: 0px; -webkit-text-stroke-width: 0px; background-color: rgb(255, 255, 255); text-decoration-thickness: initial; text-decoration-style: initial; text-decoration-color: initial; float: none; display: inline !important;&quot;&gt;Reason&lt;/span&gt;" style="text;whiteSpace=wrap;html=1;fontSize=14;fontColor=#33001A;" parent="1" vertex="1">
          <mxGeometry x="493.99999999999994" y="427" width="60" height="30" as="geometry" />
        </mxCell>
        <mxCell id="zkYiBkDDfXd4Fk8gtW7x-56" value="&lt;span style=&quot;color: rgb(0, 0, 0); font-family: Calibri; font-size: 11.29px; background-color: rgb(255, 255, 255);&quot;&gt;Reason&lt;/span&gt;" style="text;html=1;align=center;verticalAlign=middle;resizable=0;points=[];autosize=1;strokeColor=none;fillColor=none;fontSize=14;fontColor=#33001A;" parent="1" vertex="1">
          <mxGeometry x="481.99999999999994" y="497" width="50" height="20" as="geometry" />
        </mxCell>
        <mxCell id="zkYiBkDDfXd4Fk8gtW7x-57" value="&lt;span style=&quot;color: rgb(0, 0, 0); font-family: Calibri; font-size: 11.29px; background-color: rgb(255, 255, 255);&quot;&gt;Output&lt;/span&gt;" style="text;html=1;align=center;verticalAlign=middle;resizable=0;points=[];autosize=1;strokeColor=none;fillColor=none;fontSize=14;fontColor=#33001A;" parent="1" vertex="1">
          <mxGeometry x="348.99999999999994" y="508" width="50" height="20" as="geometry" />
        </mxCell>
        <mxCell id="zkYiBkDDfXd4Fk8gtW7x-58" value="&lt;span style=&quot;color: rgb(0, 0, 0); font-family: Calibri; font-size: 11.29px; background-color: rgb(255, 255, 255);&quot;&gt;Focus&lt;/span&gt;" style="text;html=1;align=center;verticalAlign=middle;resizable=0;points=[];autosize=1;strokeColor=none;fillColor=none;fontSize=14;fontColor=#33001A;" parent="1" vertex="1">
          <mxGeometry x="372.99999999999994" y="422" width="40" height="20" as="geometry" />
        </mxCell>
        <mxCell id="zkYiBkDDfXd4Fk8gtW7x-60" value="&lt;span style=&quot;color: rgb(0, 0, 0); font-family: Calibri; font-size: 11.29px; background-color: rgb(255, 255, 255);&quot;&gt;pertainsToGoal&lt;/span&gt;" style="text;html=1;align=center;verticalAlign=middle;resizable=0;points=[];autosize=1;strokeColor=none;fillColor=none;fontSize=14;fontColor=#33001A;" parent="1" vertex="1">
          <mxGeometry x="393.99999999999994" y="382" width="90" height="30" as="geometry" />
        </mxCell>
        <mxCell id="zkYiBkDDfXd4Fk8gtW7x-61" value="&lt;span style=&quot;font-family: Calibri; font-size: 11.29px; background-color: rgb(255, 255, 255);&quot;&gt;supportingInfo&lt;/span&gt;" style="text;html=1;align=center;verticalAlign=middle;resizable=0;points=[];autosize=1;strokeColor=none;fillColor=none;fontSize=14;fontColor=#33001A;" parent="1" vertex="1">
          <mxGeometry x="657" y="382" width="90" height="30" as="geometry" />
        </mxCell>
        <mxCell id="w7znvFa7csND61I8HL3Y-66" value="" style="rounded=0;whiteSpace=wrap;html=1;fillColor=none;" parent="1" vertex="1">
          <mxGeometry x="175" y="600" width="740" height="230" as="geometry" />
        </mxCell>
        <UserObject label="&lt;div style=&quot;font-size: 1px&quot;&gt;&lt;font style=&quot;font-size:14.11px;font-family:Calibri;color:#000000;direction:ltr;letter-spacing:0px;line-height:120%;opacity:1&quot;&gt;Task for Patient&lt;br&gt;&lt;/font&gt;&lt;/div&gt;" link="StructureDefinition-SDOHCC-TaskForPatient.html" linkTarget="_blank" id="w7znvFa7csND61I8HL3Y-70">
          <mxCell style="verticalAlign=middle;align=center;vsdxID=25;fillColor=#66B2FF;gradientColor=none;shape=stencil(vVTbboMwDP2aPBKFOMB47rr/iNoA0TKCQrayv2+QYSsp8FTx5suxrXNkm8Cpb2SnCGe9d/ZT3fTVNwTeCee6bZTTPlgEzgROlXWqdva7vaLfyRE5Wl/2Z+wwYF3KxhLOfmcX/Q/EGt0+YMuXYaW7hJybsbQARLsJDkDLAkPDssHcMM8oKydEIgfdJ8566bVtMT+hjXS1SsK4pDKyXqT6m1LdU3iVTDwcBC3TPT559sQnX/KJ9GFHUVmdu0H6FchYmbciUkZQIRbKbEl9gDhbK7bKJWWUi4hM9rfJ++d1yM7uHWAw/j9CpY3Bh/KYjz9ICOH3gfMd);strokeColor=#330000;strokeWidth=2;points=[[0,0.5,0],[1,0.5,0],[0.5,1,0],[0.5,0,0],[0.03,0.04,0],[0.97,0.04,0],[0.03,0.96,0],[0.97,0.96,0]];labelBackgroundColor=none;rounded=0;html=1;whiteSpace=wrap;" parent="1" vertex="1">
            <mxGeometry x="230.55999999999992" y="688" width="152" height="43" as="geometry" />
          </mxCell>
        </UserObject>
        <mxCell id="w7znvFa7csND61I8HL3Y-71" value="&lt;div style=&quot;font-size: 20px;&quot;&gt;&lt;font style=&quot;font-size: 20px; font-family: Calibri; direction: ltr; letter-spacing: 0px; line-height: 120%; opacity: 1;&quot;&gt;Patient Engagement&amp;nbsp;&lt;br style=&quot;font-size: 20px;&quot;&gt;&lt;/font&gt;&lt;/div&gt;" style="verticalAlign=middle;align=center;vsdxID=91;fillColor=none;gradientColor=none;shape=stencil(nZBLDoAgDERP0z3SIyjew0SURgSD+Lu9kMZoXLhwN9O+tukAlrNpJg1SzDH4QW/URgNYgZTkjA4UkwJUgGXng+6DX1zLfmoymdXo17xh5zmRJ6Q42BWCfc2oJfdAr+Yv+AP9Cb7OJ3H/2JG1HNGz/84klThPVCc=);strokeColor=none;points=[];labelBackgroundColor=none;rounded=0;html=1;whiteSpace=wrap;fontSize=20;fontColor=#33001A;" parent="1" vertex="1">
          <mxGeometry x="33.22" y="700" width="130" height="28" as="geometry" />
        </mxCell>
        <mxCell id="w7znvFa7csND61I8HL3Y-83" value="&lt;div style=&quot;font-size: 1px&quot;&gt;&lt;font style=&quot;font-size:11.29px;font-family:Calibri;color:#000000;direction:ltr;letter-spacing:0px;line-height:120%;opacity:1&quot;&gt;&lt;br&gt;&lt;/font&gt;&lt;/div&gt;" style="vsdxID=26;edgeStyle=none;startArrow=none;endArrow=block;startSize=5;endSize=5;strokeWidth=2;strokeColor=#0000CC;spacingTop=0;spacingBottom=0;spacingLeft=0;spacingRight=0;verticalAlign=middle;html=1;labelBackgroundColor=#ffffff;rounded=0;align=center;exitX=0.9736842105263158;exitY=0.09302325581395349;exitDx=0;exitDy=0;exitPerimeter=0;entryX=0;entryY=0.5116279069767442;entryDx=0;entryDy=0;entryPerimeter=0;" parent="1" source="w7znvFa7csND61I8HL3Y-70" edge="1">
          <mxGeometry relative="1" as="geometry">
            <mxPoint x="-1" as="offset" />
            <Array as="points" />
            <mxPoint x="509.5600000000002" y="640" as="targetPoint" />
          </mxGeometry>
        </mxCell>
        <mxCell id="w7znvFa7csND61I8HL3Y-85" value="partOf" style="curved=1;endArrow=classic;html=1;rounded=0;strokeColor=#0000CC;strokeWidth=2;" parent="1" target="w7znvFa7csND61I8HL3Y-70" edge="1">
          <mxGeometry x="0.0802" y="-16" width="50" height="50" relative="1" as="geometry">
            <mxPoint x="259" y="688" as="sourcePoint" />
            <mxPoint x="110.55999999999995" y="682.72" as="targetPoint" />
            <Array as="points">
              <mxPoint x="208.99999999999997" y="648" />
              <mxPoint x="211.55999999999992" y="713" />
              <mxPoint x="251.55999999999997" y="763" />
            </Array>
            <mxPoint x="-1" y="-2" as="offset" />
          </mxGeometry>
        </mxCell>
        <mxCell id="w7znvFa7csND61I8HL3Y-91" value="&lt;span style=&quot;color: rgb(0, 0, 0); font-family: Calibri; font-size: 11.29px; background-color: rgb(255, 255, 255);&quot;&gt;output&lt;/span&gt;" style="text;html=1;align=center;verticalAlign=middle;resizable=0;points=[];autosize=1;strokeColor=none;fillColor=none;fontSize=14;fontColor=#33001A;" parent="1" vertex="1">
          <mxGeometry x="427.53" y="727" width="50" height="30" as="geometry" />
        </mxCell>
        <UserObject label="&lt;div style=&quot;font-size: 1px&quot;&gt;&lt;font style=&quot;font-size:14.11px;font-family:Calibri;color:#000000;direction:ltr;letter-spacing:0px;line-height:120%;opacity:1&quot;&gt;Questionnaire&lt;br/&gt;&lt;/font&gt;&lt;/div&gt;" link="https://hl7.org/fhir/questionnaire.html" linkTarget="_blank" id="w7znvFa7csND61I8HL3Y-95">
          <mxCell style="verticalAlign=middle;align=center;vsdxID=5;fillColor=#fff2cc;shape=stencil(vVTbboMwDP2aPBKFOMB47rr/iNoA0TKCQrayv2+QYSsp8FTx5suxrXNkm8Cpb2SnCGe9d/ZT3fTVNwTeCee6bZTTPlgEzgROlXWqdva7vaLfyRE5Wl/2Z+wwYF3KxhLOfmcX/Q/EGt0+YMuXYaW7hJybsbQARLsJDkDLAkPDssHcMM8oKydEIgfdJ8566bVtMT+hjXS1SsK4pDKyXqT6m1LdU3iVTDwcBC3TPT559sQnX/KJ9GFHUVmdu0H6FchYmbciUkZQIRbKbEl9gDhbK7bKJWWUi4hM9rfJ++d1yM7uHWAw/j9CpY3Bh/KYjz9ICOH3gfMd);strokeColor=#000000;strokeWidth=2;points=[[0,0.5,0],[1,0.5,0],[0.5,1,0],[0.5,0,0],[0.03,0.04,0],[0.97,0.04,0],[0.03,0.96,0],[0.97,0.96,0]];labelBackgroundColor=none;rounded=0;html=1;whiteSpace=wrap;" parent="1" vertex="1">
            <mxGeometry x="508.5300000000001" y="610" width="152" height="43" as="geometry" />
          </mxCell>
        </UserObject>
        <UserObject label="&lt;div style=&quot;font-size: 1px&quot;&gt;&lt;font style=&quot;font-size:14.11px;font-family:Calibri;color:#000000;direction:ltr;letter-spacing:0px;line-height:120%;opacity:1&quot;&gt;DocumentReference&lt;br&gt;&lt;/font&gt;&lt;/div&gt;" link="https://hl7.org/fhir/documentReference.html" linkTarget="_blank" id="w7znvFa7csND61I8HL3Y-96">
          <mxCell style="verticalAlign=middle;align=center;vsdxID=5;fillColor=#fff2cc;shape=stencil(vVTbboMwDP2aPBKFOMB47rr/iNoA0TKCQrayv2+QYSsp8FTx5suxrXNkm8Cpb2SnCGe9d/ZT3fTVNwTeCee6bZTTPlgEzgROlXWqdva7vaLfyRE5Wl/2Z+wwYF3KxhLOfmcX/Q/EGt0+YMuXYaW7hJybsbQARLsJDkDLAkPDssHcMM8oKydEIgfdJ8566bVtMT+hjXS1SsK4pDKyXqT6m1LdU3iVTDwcBC3TPT559sQnX/KJ9GFHUVmdu0H6FchYmbciUkZQIRbKbEl9gDhbK7bKJWWUi4hM9rfJ++d1yM7uHWAw/j9CpY3Bh/KYjz9ICOH3gfMd);strokeColor=#000000;strokeWidth=2;points=[[0,0.5,0],[1,0.5,0],[0.5,1,0],[0.5,0,0],[0.03,0.04,0],[0.97,0.04,0],[0.03,0.96,0],[0.97,0.96,0]];labelBackgroundColor=none;rounded=0;html=1;whiteSpace=wrap;" parent="1" vertex="1">
            <mxGeometry x="697.97" y="709" width="152" height="43" as="geometry" />
          </mxCell>
        </UserObject>
        <UserObject label="&lt;div style=&quot;font-size: 1px&quot;&gt;&lt;font style=&quot;font-size:14.11px;font-family:Calibri;color:#000000;direction:ltr;letter-spacing:0px;line-height:120%;opacity:1&quot;&gt;HealthcareService&lt;/font&gt;&lt;/div&gt;" link="StructureDefinition-SDOHCC-HealthcareService.html" linkTarget="_blank" id="w7znvFa7csND61I8HL3Y-97">
          <mxCell style="verticalAlign=middle;align=center;vsdxID=14;fillColor=#66B2FF;gradientColor=none;shape=stencil(vVTbboMwDP2aPBKFOMB47rr/iNoA0TKCQrayv2+QYSsp8FTx5suxrXNkm8Cpb2SnCGe9d/ZT3fTVNwTeCee6bZTTPlgEzgROlXWqdva7vaLfyRE5Wl/2Z+wwYF3KxhLOfmcX/Q/EGt0+YMuXYaW7hJybsbQARLsJDkDLAkPDssHcMM8oKydEIgfdJ8566bVtMT+hjXS1SsK4pDKyXqT6m1LdU3iVTDwcBC3TPT559sQnX/KJ9GFHUVmdu0H6FchYmbciUkZQIRbKbEl9gDhbK7bKJWWUi4hM9rfJ++d1yM7uHWAw/j9CpY3Bh/KYjz9ICOH3gfMd);strokeColor=#330000;strokeWidth=2;points=[[0,0.5,0],[1,0.5,0],[0.5,1,0],[0.5,0,0],[0.03,0.04,0],[0.97,0.04,0],[0.03,0.96,0],[0.97,0.96,0]];labelBackgroundColor=none;rounded=0;html=1;whiteSpace=wrap;" parent="1" vertex="1">
            <mxGeometry x="697.9699999999999" y="645" width="152" height="43" as="geometry" />
          </mxCell>
        </UserObject>
        <UserObject label="&lt;div style=&quot;font-size: 1px&quot;&gt;&lt;font style=&quot;font-size:14.11px;font-family:Calibri;color:#000000;direction:ltr;letter-spacing:0px;line-height:120%;opacity:1&quot;&gt;QuestionnaireResponse&lt;br&gt;&lt;/font&gt;&lt;/div&gt;" link="https://hl7.org/fhir/questionnaireResponse.html" linkTarget="_blank" id="w7znvFa7csND61I8HL3Y-98">
          <mxCell style="verticalAlign=middle;align=center;vsdxID=5;fillColor=#fff2cc;shape=stencil(vVTbboMwDP2aPBKFOMB47rr/iNoA0TKCQrayv2+QYSsp8FTx5suxrXNkm8Cpb2SnCGe9d/ZT3fTVNwTeCee6bZTTPlgEzgROlXWqdva7vaLfyRE5Wl/2Z+wwYF3KxhLOfmcX/Q/EGt0+YMuXYaW7hJybsbQARLsJDkDLAkPDssHcMM8oKydEIgfdJ8566bVtMT+hjXS1SsK4pDKyXqT6m1LdU3iVTDwcBC3TPT559sQnX/KJ9GFHUVmdu0H6FchYmbciUkZQIRbKbEl9gDhbK7bKJWWUi4hM9rfJ++d1yM7uHWAw/j9CpY3Bh/KYjz9ICOH3gfMd);strokeColor=#000000;strokeWidth=2;points=[[0,0.5,0],[1,0.5,0],[0.5,1,0],[0.5,0,0],[0.03,0.04,0],[0.97,0.04,0],[0.03,0.96,0],[0.97,0.96,0]];labelBackgroundColor=none;rounded=0;html=1;whiteSpace=wrap;" parent="1" vertex="1">
            <mxGeometry x="515.9700000000001" y="771" width="152" height="43" as="geometry" />
          </mxCell>
        </UserObject>
        <mxCell id="w7znvFa7csND61I8HL3Y-99" value="&lt;span style=&quot;color: rgb(0, 0, 0); font-family: Calibri; font-size: 11.29px; background-color: rgb(255, 255, 255);&quot;&gt;input&lt;/span&gt;" style="text;html=1;align=center;verticalAlign=middle;resizable=0;points=[];autosize=1;strokeColor=none;fillColor=none;fontSize=14;fontColor=#33001A;" parent="1" vertex="1">
          <mxGeometry x="382.96999999999997" y="640" width="50" height="30" as="geometry" />
        </mxCell>
        <mxCell id="w7znvFa7csND61I8HL3Y-100" value="&lt;div style=&quot;font-size: 1px&quot;&gt;&lt;font style=&quot;font-size:11.29px;font-family:Calibri;color:#000000;direction:ltr;letter-spacing:0px;line-height:120%;opacity:1&quot;&gt;&lt;br&gt;&lt;/font&gt;&lt;/div&gt;" style="vsdxID=26;edgeStyle=none;startArrow=none;endArrow=block;startSize=5;endSize=5;strokeWidth=2;strokeColor=#0000CC;spacingTop=0;spacingBottom=0;spacingLeft=0;spacingRight=0;verticalAlign=middle;html=1;labelBackgroundColor=#ffffff;rounded=0;align=center;entryX=0;entryY=0.5;entryDx=0;entryDy=0;entryPerimeter=0;exitX=1;exitY=0.5;exitDx=0;exitDy=0;exitPerimeter=0;" parent="1" source="w7znvFa7csND61I8HL3Y-70" target="w7znvFa7csND61I8HL3Y-97" edge="1">
          <mxGeometry relative="1" as="geometry">
            <mxPoint x="-1" as="offset" />
            <Array as="points" />
            <mxPoint x="387.97" y="711" as="sourcePoint" />
            <mxPoint x="519.5600000000002" y="650" as="targetPoint" />
          </mxGeometry>
        </mxCell>
        <mxCell id="w7znvFa7csND61I8HL3Y-101" value="&lt;span style=&quot;color: rgb(0, 0, 0); font-family: Calibri; font-size: 11.29px; background-color: rgb(255, 255, 255);&quot;&gt;input&lt;/span&gt;" style="text;html=1;align=center;verticalAlign=middle;resizable=0;points=[];autosize=1;strokeColor=none;fillColor=none;fontSize=14;fontColor=#33001A;" parent="1" vertex="1">
          <mxGeometry x="622.47" y="694.5" width="50" height="30" as="geometry" />
        </mxCell>
        <mxCell id="w7znvFa7csND61I8HL3Y-102" value="&lt;div style=&quot;font-size: 1px&quot;&gt;&lt;font style=&quot;font-size:11.29px;font-family:Calibri;color:#000000;direction:ltr;letter-spacing:0px;line-height:120%;opacity:1&quot;&gt;&lt;br&gt;&lt;/font&gt;&lt;/div&gt;" style="vsdxID=26;edgeStyle=none;startArrow=none;endArrow=block;startSize=5;endSize=5;strokeWidth=2;strokeColor=#0000CC;spacingTop=0;spacingBottom=0;spacingLeft=0;spacingRight=0;verticalAlign=middle;html=1;labelBackgroundColor=#ffffff;rounded=0;align=center;entryX=0.007;entryY=0.209;entryDx=0;entryDy=0;entryPerimeter=0;" parent="1" target="w7znvFa7csND61I8HL3Y-96" edge="1">
          <mxGeometry relative="1" as="geometry">
            <mxPoint x="-1" as="offset" />
            <Array as="points" />
            <mxPoint x="382.56" y="717" as="sourcePoint" />
            <mxPoint x="692.5600000000001" y="673" as="targetPoint" />
          </mxGeometry>
        </mxCell>
        <mxCell id="w7znvFa7csND61I8HL3Y-103" value="&lt;span style=&quot;color: rgb(0, 0, 0); font-family: Calibri; font-size: 11.29px; background-color: rgb(255, 255, 255);&quot;&gt;input&lt;/span&gt;" style="text;html=1;align=center;verticalAlign=middle;resizable=0;points=[];autosize=1;strokeColor=none;fillColor=none;fontSize=14;fontColor=#33001A;" parent="1" vertex="1">
          <mxGeometry x="559.53" y="653" width="50" height="30" as="geometry" />
        </mxCell>
        <mxCell id="w7znvFa7csND61I8HL3Y-104" value="&lt;div style=&quot;font-size: 1px&quot;&gt;&lt;font style=&quot;font-size:11.29px;font-family:Calibri;color:#000000;direction:ltr;letter-spacing:0px;line-height:120%;opacity:1&quot;&gt;&lt;br&gt;&lt;/font&gt;&lt;/div&gt;" style="vsdxID=26;edgeStyle=none;startArrow=none;endArrow=block;startSize=5;endSize=5;strokeWidth=2;strokeColor=#0000CC;spacingTop=0;spacingBottom=0;spacingLeft=0;spacingRight=0;verticalAlign=middle;html=1;labelBackgroundColor=#ffffff;rounded=0;align=center;entryX=-0.02;entryY=0.744;entryDx=0;entryDy=0;entryPerimeter=0;exitX=0.983;exitY=0.767;exitDx=0;exitDy=0;exitPerimeter=0;" parent="1" source="w7znvFa7csND61I8HL3Y-70" target="w7znvFa7csND61I8HL3Y-96" edge="1">
          <mxGeometry relative="1" as="geometry">
            <mxPoint x="-1" as="offset" />
            <Array as="points" />
            <mxPoint x="377.97" y="721" as="sourcePoint" />
            <mxPoint x="708.97" y="728" as="targetPoint" />
          </mxGeometry>
        </mxCell>
        <mxCell id="w7znvFa7csND61I8HL3Y-105" value="&lt;span style=&quot;color: rgb(0, 0, 0); font-family: Calibri; font-size: 11.29px; background-color: rgb(255, 255, 255);&quot;&gt;output&lt;/span&gt;" style="text;html=1;align=center;verticalAlign=middle;resizable=0;points=[];autosize=1;strokeColor=none;fillColor=none;fontSize=14;fontColor=#33001A;" parent="1" vertex="1">
          <mxGeometry x="630.53" y="734" width="50" height="30" as="geometry" />
        </mxCell>
        <mxCell id="w7znvFa7csND61I8HL3Y-106" value="&lt;div style=&quot;font-size: 1px&quot;&gt;&lt;font style=&quot;font-size:11.29px;font-family:Calibri;color:#000000;direction:ltr;letter-spacing:0px;line-height:120%;opacity:1&quot;&gt;&lt;br&gt;&lt;/font&gt;&lt;/div&gt;" style="vsdxID=26;edgeStyle=none;startArrow=none;endArrow=block;startSize=5;endSize=5;strokeWidth=2;strokeColor=#0000CC;spacingTop=0;spacingBottom=0;spacingLeft=0;spacingRight=0;verticalAlign=middle;html=1;labelBackgroundColor=#ffffff;rounded=0;align=center;" parent="1" target="w7znvFa7csND61I8HL3Y-98" edge="1">
          <mxGeometry relative="1" as="geometry">
            <mxPoint x="-1" as="offset" />
            <Array as="points" />
            <mxPoint x="333.53000000000003" y="731" as="sourcePoint" />
            <mxPoint x="660.53" y="751" as="targetPoint" />
          </mxGeometry>
        </mxCell>
        <UserObject label="&lt;div style=&quot;font-size: 1px&quot;&gt;&lt;font style=&quot;font-size:14.11px;font-family:Calibri;color:#000000;direction:ltr;letter-spacing:0px;line-height:120%;opacity:1&quot;&gt;Questionnaire&lt;br/&gt;&lt;/font&gt;&lt;/div&gt;" link="https://hl7.org/fhir/questionnaire.html" linkTarget="_blank" id="xCHIgen64dAe4VgpeUQL-40">
          <mxCell style="verticalAlign=middle;align=center;vsdxID=5;fillColor=#fff2cc;shape=stencil(vVTbboMwDP2aPBKFOMB47rr/iNoA0TKCQrayv2+QYSsp8FTx5suxrXNkm8Cpb2SnCGe9d/ZT3fTVNwTeCee6bZTTPlgEzgROlXWqdva7vaLfyRE5Wl/2Z+wwYF3KxhLOfmcX/Q/EGt0+YMuXYaW7hJybsbQARLsJDkDLAkPDssHcMM8oKydEIgfdJ8566bVtMT+hjXS1SsK4pDKyXqT6m1LdU3iVTDwcBC3TPT559sQnX/KJ9GFHUVmdu0H6FchYmbciUkZQIRbKbEl9gDhbK7bKJWWUi4hM9rfJ++d1yM7uHWAw/j9CpY3Bh/KYjz9ICOH3gfMd);strokeColor=#000000;strokeWidth=2;points=[[0,0.5,0],[1,0.5,0],[0.5,1,0],[0.5,0,0],[0.03,0.04,0],[0.97,0.04,0],[0.03,0.96,0],[0.97,0.96,0]];labelBackgroundColor=none;rounded=0;html=1;whiteSpace=wrap;" parent="1" vertex="1">
            <mxGeometry x="199" y="40" width="152" height="43" as="geometry" />
          </mxCell>
        </UserObject>
        <UserObject label="&lt;div style=&quot;font-size: 1px&quot;&gt;&lt;font style=&quot;font-size:14.11px;font-family:Calibri;color:#000000;direction:ltr;letter-spacing:0px;line-height:120%;opacity:1&quot;&gt;QuestionnaireResponse&lt;br/&gt;&lt;/font&gt;&lt;/div&gt;" link="https://www.hl7.org/fhir/questionnaireresponse.html" linkTarget="_blank" id="xCHIgen64dAe4VgpeUQL-41">
          <mxCell style="verticalAlign=middle;align=center;vsdxID=6;fillColor=#fff2cc;shape=stencil(vVTbboMwDP2aPBKFOMB47rr/iNoA0TKCQrayv2+QYSsp8FTx5suxrXNkm8Cpb2SnCGe9d/ZT3fTVNwTeCee6bZTTPlgEzgROlXWqdva7vaLfyRE5Wl/2Z+wwYF3KxhLOfmcX/Q/EGt0+YMuXYaW7hJybsbQARLsJDkDLAkPDssHcMM8oKydEIgfdJ8566bVtMT+hjXS1SsK4pDKyXqT6m1LdU3iVTDwcBC3TPT559sQnX/KJ9GFHUVmdu0H6FchYmbciUkZQIRbKbEl9gDhbK7bKJWWUi4hM9rfJ++d1yM7uHWAw/j9CpY3Bh/KYjz9ICOH3gfMd);strokeColor=#000000;strokeWidth=2;points=[[0,0.5,0],[1,0.5,0],[0.5,1,0],[0.5,0,0],[0.03,0.04,0],[0.97,0.04,0],[0.03,0.96,0],[0.97,0.96,0]];labelBackgroundColor=none;rounded=0;html=1;whiteSpace=wrap;" parent="1" vertex="1">
            <mxGeometry x="199" y="129" width="152" height="43" as="geometry" />
          </mxCell>
        </UserObject>
        <UserObject label="&lt;div style=&quot;font-size: 1px&quot;&gt;&lt;font style=&quot;font-size:14.11px;font-family:Calibri;color:#000000;direction:ltr;letter-spacing:0px;line-height:120%;opacity:1&quot;&gt;Observation &lt;br&gt;Screening Response&lt;/font&gt;&lt;/div&gt;" link="StructureDefinition-SDOHCC-ObservationSurvey.html" linkTarget="_blank" id="xCHIgen64dAe4VgpeUQL-42">
          <mxCell style="verticalAlign=middle;align=center;vsdxID=7;fillColor=#66B2FF;gradientColor=none;shape=stencil(vVTbboMwDP2aPBKFOMB47rr/iNoA0TKCQrayv2+QYSsp8FTx5suxrXNkm8Cpb2SnCGe9d/ZT3fTVNwTeCee6bZTTPlgEzgROlXWqdva7vaLfyRE5Wl/2Z+wwYF3KxhLOfmcX/Q/EGt0+YMuXYaW7hJybsbQARLsJDkDLAkPDssHcMM8oKydEIgfdJ8566bVtMT+hjXS1SsK4pDKyXqT6m1LdU3iVTDwcBC3TPT559sQnX/KJ9GFHUVmdu0H6FchYmbciUkZQIRbKbEl9gDhbK7bKJWWUi4hM9rfJ++d1yM7uHWAw/j9CpY3Bh/KYjz9ICOH3gfMd);strokeColor=#330000;strokeWidth=2;points=[[0,0.5,0],[1,0.5,0],[0.5,1,0],[0.5,0,0],[0.03,0.04,0],[0.97,0.04,0],[0.03,0.96,0],[0.97,0.96,0]];labelBackgroundColor=none;rounded=0;html=1;whiteSpace=wrap;" parent="1" vertex="1">
            <mxGeometry x="477" y="129" width="152" height="43" as="geometry" />
          </mxCell>
        </UserObject>
        <UserObject label="&lt;div style=&quot;font-size: 1px&quot;&gt;&lt;font style=&quot;font-size:14.11px;font-family:Calibri;color:#000000;direction:ltr;letter-spacing:0px;line-height:120%;opacity:1&quot;&gt;Goal&lt;br/&gt;&lt;/font&gt;&lt;/div&gt;" link="StructureDefinition-SDOHCC-Goal.html" linkTarget="_blank" id="xCHIgen64dAe4VgpeUQL-43">
          <mxCell style="verticalAlign=middle;align=center;vsdxID=8;fillColor=#66B2FF;gradientColor=none;shape=stencil(vVTbboMwDP2aPBKFOMB47rr/iNoA0TKCQrayv2+QYSsp8FTx5suxrXNkm8Cpb2SnCGe9d/ZT3fTVNwTeCee6bZTTPlgEzgROlXWqdva7vaLfyRE5Wl/2Z+wwYF3KxhLOfmcX/Q/EGt0+YMuXYaW7hJybsbQARLsJDkDLAkPDssHcMM8oKydEIgfdJ8566bVtMT+hjXS1SsK4pDKyXqT6m1LdU3iVTDwcBC3TPT559sQnX/KJ9GFHUVmdu0H6FchYmbciUkZQIRbKbEl9gDhbK7bKJWWUi4hM9rfJ++d1yM7uHWAw/j9CpY3Bh/KYjz9ICOH3gfMd);strokeColor=#330000;strokeWidth=2;points=[[0,0.5,0],[1,0.5,0],[0.5,1,0],[0.5,0,0],[0.03,0.04,0],[0.97,0.04,0],[0.03,0.96,0],[0.97,0.96,0]];labelBackgroundColor=none;rounded=0;html=1;whiteSpace=wrap;" parent="1" vertex="1">
            <mxGeometry x="199" y="268" width="152" height="43" as="geometry" />
          </mxCell>
        </UserObject>
        <UserObject label="&lt;div style=&quot;font-size: 1px&quot;&gt;&lt;font style=&quot;font-size:14.11px;font-family:Calibri;color:#000000;direction:ltr;letter-spacing:0px;line-height:120%;opacity:1&quot;&gt;Condition&lt;br/&gt;&lt;/font&gt;&lt;/div&gt;" link="StructureDefinition-SDOHCC-Condition.html" linkTarget="_blank" id="xCHIgen64dAe4VgpeUQL-44">
          <mxCell style="verticalAlign=middle;align=center;vsdxID=9;fillColor=#66B2FF;gradientColor=none;shape=stencil(vVTbboMwDP2aPBKFOMB47rr/iNoA0TKCQrayv2+QYSsp8FTx5suxrXNkm8Cpb2SnCGe9d/ZT3fTVNwTeCee6bZTTPlgEzgROlXWqdva7vaLfyRE5Wl/2Z+wwYF3KxhLOfmcX/Q/EGt0+YMuXYaW7hJybsbQARLsJDkDLAkPDssHcMM8oKydEIgfdJ8566bVtMT+hjXS1SsK4pDKyXqT6m1LdU3iVTDwcBC3TPT559sQnX/KJ9GFHUVmdu0H6FchYmbciUkZQIRbKbEl9gDhbK7bKJWWUi4hM9rfJ++d1yM7uHWAw/j9CpY3Bh/KYjz9ICOH3gfMd);strokeColor=#330000;strokeWidth=2;points=[[0,0.5,0],[1,0.5,0],[0.5,1,0],[0.5,0,0],[0.03,0.04,0],[0.97,0.04,0],[0.03,0.96,0],[0.97,0.96,0]];labelBackgroundColor=none;rounded=0;html=1;whiteSpace=wrap;" parent="1" vertex="1">
            <mxGeometry x="720" y="135.5" width="172" height="34.5" as="geometry" />
          </mxCell>
        </UserObject>
        <UserObject label="&lt;div style=&quot;font-size: 1px&quot;&gt;&lt;font style=&quot;font-size:14.11px;font-family:Calibri;color:#000000;direction:ltr;letter-spacing:0px;line-height:120%;opacity:1&quot;&gt;Observation Assessment&lt;br&gt;&lt;/font&gt;&lt;/div&gt;" link="StructureDefinition-SDOHCC-ObservationAssessment.html" linkTarget="_blank" id="xCHIgen64dAe4VgpeUQL-49">
          <mxCell style="verticalAlign=middle;align=center;vsdxID=75;fillColor=#66B2FF;gradientColor=none;shape=stencil(vVTbboMwDP2aPBKFOMB47rr/iNoA0TKCQrayv2+QYSsp8FTx5suxrXNkm8Cpb2SnCGe9d/ZT3fTVNwTeCee6bZTTPlgEzgROlXWqdva7vaLfyRE5Wl/2Z+wwYF3KxhLOfmcX/Q/EGt0+YMuXYaW7hJybsbQARLsJDkDLAkPDssHcMM8oKydEIgfdJ8566bVtMT+hjXS1SsK4pDKyXqT6m1LdU3iVTDwcBC3TPT559sQnX/KJ9GFHUVmdu0H6FchYmbciUkZQIRbKbEl9gDhbK7bKJWWUi4hM9rfJ++d1yM7uHWAw/j9CpY3Bh/KYjz9ICOH3gfMd);strokeColor=#330000;strokeWidth=2;points=[[0,0.5,0],[1,0.5,0],[0.5,1,0],[0.5,0,0],[0.03,0.04,0],[0.97,0.04,0],[0.03,0.96,0],[0.97,0.96,0]];labelBackgroundColor=none;rounded=0;html=1;whiteSpace=wrap;" parent="1" vertex="1">
            <mxGeometry x="477" y="40" width="152" height="43" as="geometry" />
          </mxCell>
        </UserObject>
        <mxCell id="xCHIgen64dAe4VgpeUQL-50" value="&lt;div style=&quot;font-size: 20px;&quot;&gt;&lt;font style=&quot;font-size: 20px; font-family: Calibri; direction: ltr; letter-spacing: 0px; line-height: 120%; opacity: 1;&quot;&gt;Assessment &lt;br style=&quot;font-size: 20px;&quot;&gt;&lt;/font&gt;&lt;/div&gt;" style="verticalAlign=middle;align=center;vsdxID=90;fillColor=none;gradientColor=none;shape=stencil(nZBLDoAgDERP0z3SIyjew0SURgSD+Lu9kMZoXLhwN9O+tukAlrNpJg1SzDH4QW/URgNYgZTkjA4UkwJUgGXng+6DX1zLfmoymdXo17xh5zmRJ6Q42BWCfc2oJfdAr+Yv+AP9Cb7OJ3H/2JG1HNGz/84klThPVCc=);strokeColor=none;points=[];labelBackgroundColor=none;rounded=0;html=1;whiteSpace=wrap;fontSize=20;fontColor=#33001A;" parent="1" vertex="1">
          <mxGeometry x="47.5" y="85" width="95" height="28" as="geometry" />
        </mxCell>
        <mxCell id="xCHIgen64dAe4VgpeUQL-51" value="&lt;div style=&quot;font-size: 1px&quot;&gt;&lt;font style=&quot;font-size:14.11px;font-family:Calibri;color:#000000;direction:ltr;letter-spacing:0px;line-height:120%;opacity:1&quot;&gt;Observation &lt;br&gt;Screening or Assessment&lt;br&gt;&lt;/font&gt;&lt;/div&gt;" style="verticalAlign=middle;align=center;vsdxID=100;fillColor=#66B2FF;gradientColor=none;shape=stencil(vVTbboMwDP2aPBKFOMB47rr/iNoA0TKCQrayv2+QYSsp8FTx5suxrXNkm8Cpb2SnCGe9d/ZT3fTVNwTeCee6bZTTPlgEzgROlXWqdva7vaLfyRE5Wl/2Z+wwYF3KxhLOfmcX/Q/EGt0+YMuXYaW7hJybsbQARLsJDkDLAkPDssHcMM8oKydEIgfdJ8566bVtMT+hjXS1SsK4pDKyXqT6m1LdU3iVTDwcBC3TPT559sQnX/KJ9GFHUVmdu0H6FchYmbciUkZQIRbKbEl9gDhbK7bKJWWUi4hM9rfJ++d1yM7uHWAw/j9CpY3Bh/KYjz9ICOH3gfMd);strokeColor=#330000;strokeWidth=2;points=[[0,0.5,0],[1,0.5,0],[0.5,1,0],[0.5,0,0],[0.03,0.04,0],[0.97,0.04,0],[0.03,0.96,0],[0.97,0.96,0]];labelBackgroundColor=none;rounded=0;html=1;whiteSpace=wrap;" parent="1" vertex="1">
          <mxGeometry x="477" y="232" width="153" height="43" as="geometry" />
        </mxCell>
        <UserObject label="&lt;div style=&quot;font-size: 1px&quot;&gt;&lt;font style=&quot;font-size:14.11px;font-family:Calibri;color:#000000;direction:ltr;letter-spacing:0px;line-height:120%;opacity:1&quot;&gt;Condition&lt;br/&gt;&lt;/font&gt;&lt;/div&gt;" link="StructureDefinition-SDOHCC-Condition.html" linkTarget="_blank" id="xCHIgen64dAe4VgpeUQL-52">
          <mxCell style="verticalAlign=middle;align=center;vsdxID=102;fillColor=#66B2FF;gradientColor=none;shape=stencil(vVTbboMwDP2aPBKFOMB47rr/iNoA0TKCQrayv2+QYSsp8FTx5suxrXNkm8Cpb2SnCGe9d/ZT3fTVNwTeCee6bZTTPlgEzgROlXWqdva7vaLfyRE5Wl/2Z+wwYF3KxhLOfmcX/Q/EGt0+YMuXYaW7hJybsbQARLsJDkDLAkPDssHcMM8oKydEIgfdJ8566bVtMT+hjXS1SsK4pDKyXqT6m1LdU3iVTDwcBC3TPT559sQnX/KJ9GFHUVmdu0H6FchYmbciUkZQIRbKbEl9gDhbK7bKJWWUi4hM9rfJ++d1yM7uHWAw/j9CpY3Bh/KYjz9ICOH3gfMd);strokeColor=#330000;strokeWidth=2;points=[[0,0.5,0],[1,0.5,0],[0.5,1,0],[0.5,0,0],[0.03,0.04,0],[0.97,0.04,0],[0.03,0.96,0],[0.97,0.96,0]];labelBackgroundColor=none;rounded=0;html=1;whiteSpace=wrap;" parent="1" vertex="1">
            <mxGeometry x="478" y="306" width="152" height="43" as="geometry" />
          </mxCell>
        </UserObject>
        <mxCell id="xCHIgen64dAe4VgpeUQL-57" value="&lt;div style=&quot;font-size: 20px;&quot;&gt;&lt;font style=&quot;font-size: 20px; font-family: Calibri; direction: ltr; letter-spacing: 0px; line-height: 120%; opacity: 1;&quot;&gt;Goal Management&lt;br style=&quot;font-size: 20px;&quot;&gt;&lt;/font&gt;&lt;/div&gt;" style="verticalAlign=middle;align=center;vsdxID=109;fillColor=none;gradientColor=none;shape=stencil(nZBLDoAgDERP0z3SIyjew0SURgSD+Lu9kMZoXLhwN9O+tukAlrNpJg1SzDH4QW/URgNYgZTkjA4UkwJUgGXng+6DX1zLfmoymdXo17xh5zmRJ6Q42BWCfc2oJfdAr+Yv+AP9Cb7OJ3H/2JG1HNGz/84klThPVCc=);strokeColor=none;points=[];labelBackgroundColor=none;rounded=0;html=1;whiteSpace=wrap;fontSize=20;fontColor=#33001A;" parent="1" vertex="1">
          <mxGeometry x="68.5" y="283" width="53" height="28" as="geometry" />
        </mxCell>
        <mxCell id="xCHIgen64dAe4VgpeUQL-58" value="&lt;div style=&quot;font-size: 1px&quot;&gt;&lt;font style=&quot;font-size:11.29px;font-family:Calibri;color:#000000;direction:ltr;letter-spacing:0px;line-height:120%;opacity:1&quot;&gt;&lt;br&gt;&lt;/font&gt;&lt;/div&gt;" style="vsdxID=104;edgeStyle=none;startArrow=none;endArrow=block;startSize=5;endSize=5;strokeWidth=2;strokeColor=#0000CC;spacingTop=0;spacingBottom=0;spacingLeft=0;spacingRight=0;verticalAlign=middle;html=1;labelBackgroundColor=#ffffff;rounded=0;align=center;exitX=0.9736842105263158;exitY=0.9069767441860465;exitDx=0;exitDy=0;exitPerimeter=0;entryX=0;entryY=0.5116279069767442;entryDx=0;entryDy=0;entryPerimeter=0;" parent="1" source="xCHIgen64dAe4VgpeUQL-43" target="xCHIgen64dAe4VgpeUQL-52" edge="1">
          <mxGeometry relative="1" as="geometry">
            <mxPoint x="-1" y="-1" as="offset" />
            <Array as="points" />
          </mxGeometry>
        </mxCell>
        <mxCell id="xCHIgen64dAe4VgpeUQL-59" value="&lt;div style=&quot;font-size: 1px&quot;&gt;&lt;font style=&quot;font-size: 11.29px; font-family: Calibri; direction: ltr; letter-spacing: 0px; line-height: 120%; opacity: 1;&quot;&gt;&lt;br&gt;&lt;/font&gt;&lt;/div&gt;" style="vsdxID=98;edgeStyle=none;startArrow=none;endArrow=block;startSize=5;endSize=5;strokeWidth=2;strokeColor=#0000CC;spacingTop=0;spacingBottom=0;spacingLeft=0;spacingRight=0;verticalAlign=middle;html=1;labelBackgroundColor=#ffffff;rounded=0;align=center;exitX=0.03289473684210526;exitY=0.11627906976744186;exitDx=0;exitDy=0;exitPerimeter=0;entryX=1.006578947368421;entryY=0.5116279069767442;entryDx=0;entryDy=0;entryPerimeter=0;" parent="1" source="xCHIgen64dAe4VgpeUQL-44" target="xCHIgen64dAe4VgpeUQL-49" edge="1">
          <mxGeometry relative="1" as="geometry">
            <mxPoint as="offset" />
            <Array as="points" />
          </mxGeometry>
        </mxCell>
        <mxCell id="xCHIgen64dAe4VgpeUQL-60" value="&lt;div style=&quot;font-size: 1px&quot;&gt;&lt;font style=&quot;font-size: 11.29px; font-family: Calibri; direction: ltr; letter-spacing: 0px; line-height: 120%; opacity: 1;&quot;&gt;&lt;br&gt;&lt;/font&gt;&lt;/div&gt;" style="vsdxID=93;edgeStyle=none;startArrow=none;endArrow=block;startSize=5;endSize=5;strokeWidth=2;strokeColor=#0000CC;spacingTop=0;spacingBottom=0;spacingLeft=0;spacingRight=0;verticalAlign=middle;html=1;labelBackgroundColor=#ffffff;rounded=0;align=center;entryX=1.006578947368421;entryY=0.5116279069767442;entryDx=0;entryDy=0;entryPerimeter=0;exitX=0;exitY=0.5;exitDx=0;exitDy=0;exitPerimeter=0;" parent="1" source="xCHIgen64dAe4VgpeUQL-44" target="xCHIgen64dAe4VgpeUQL-42" edge="1">
          <mxGeometry relative="1" as="geometry">
            <mxPoint x="-1" as="offset" />
            <Array as="points" />
          </mxGeometry>
        </mxCell>
        <mxCell id="xCHIgen64dAe4VgpeUQL-61" value="&lt;div style=&quot;font-size: 1px&quot;&gt;&lt;font style=&quot;font-size:11.29px;font-family:Calibri;color:#000000;direction:ltr;letter-spacing:0px;line-height:120%;opacity:1&quot;&gt;&lt;br&gt;&lt;/font&gt;&lt;/div&gt;" style="vsdxID=83;edgeStyle=none;startArrow=none;endArrow=block;startSize=5;endSize=5;strokeWidth=2;strokeColor=#0000CC;spacingTop=0;spacingBottom=0;spacingLeft=0;spacingRight=0;verticalAlign=middle;html=1;labelBackgroundColor=#ffffff;rounded=0;align=center;exitX=0.9736842105263158;exitY=0.09302325581395349;exitDx=0;exitDy=0;exitPerimeter=0;entryX=0;entryY=0.5116279069767442;entryDx=0;entryDy=0;entryPerimeter=0;" parent="1" source="xCHIgen64dAe4VgpeUQL-43" target="xCHIgen64dAe4VgpeUQL-51" edge="1">
          <mxGeometry relative="1" as="geometry">
            <mxPoint x="-1" as="offset" />
            <Array as="points" />
          </mxGeometry>
        </mxCell>
        <mxCell id="xCHIgen64dAe4VgpeUQL-62" value="&lt;div style=&quot;font-size: 1px&quot;&gt;&lt;font style=&quot;font-size: 11.29px; font-family: Calibri; direction: ltr; letter-spacing: 0px; line-height: 120%; opacity: 1;&quot;&gt;&lt;br&gt;&lt;/font&gt;&lt;/div&gt;" style="vsdxID=17;edgeStyle=none;startArrow=none;endArrow=block;startSize=5;endSize=5;strokeWidth=2;strokeColor=#0000CC;spacingTop=0;spacingBottom=0;spacingLeft=0;spacingRight=0;verticalAlign=middle;html=1;labelBackgroundColor=#ffffff;rounded=0;align=center;exitX=0.5;exitY=0;exitDx=0;exitDy=0;exitPerimeter=0;entryX=0.5;entryY=1.0232558139534884;entryDx=0;entryDy=0;entryPerimeter=0;" parent="1" source="xCHIgen64dAe4VgpeUQL-41" target="xCHIgen64dAe4VgpeUQL-40" edge="1">
          <mxGeometry relative="1" as="geometry">
            <mxPoint x="12" as="offset" />
            <Array as="points" />
          </mxGeometry>
        </mxCell>
        <mxCell id="xCHIgen64dAe4VgpeUQL-63" value="&lt;div style=&quot;font-size: 1px&quot;&gt;&lt;font style=&quot;font-size:11.29px;font-family:Calibri;color:#345593;direction:ltr;letter-spacing:0px;line-height:120%;opacity:1&quot;&gt;&lt;br&gt;&lt;/font&gt;&lt;/div&gt;" style="vsdxID=18;edgeStyle=none;startArrow=none;endArrow=block;startSize=5;endSize=5;strokeWidth=2;strokeColor=#0000CC;spacingTop=0;spacingBottom=0;spacingLeft=0;spacingRight=0;verticalAlign=middle;html=1;labelBackgroundColor=#ffffff;rounded=0;align=center;exitX=0;exitY=0.5116279069767442;exitDx=0;exitDy=0;exitPerimeter=0;entryX=1;entryY=0.5116279069767442;entryDx=0;entryDy=0;entryPerimeter=0;" parent="1" source="xCHIgen64dAe4VgpeUQL-42" target="xCHIgen64dAe4VgpeUQL-41" edge="1">
          <mxGeometry relative="1" as="geometry">
            <mxPoint as="offset" />
            <Array as="points" />
          </mxGeometry>
        </mxCell>
        <mxCell id="xCHIgen64dAe4VgpeUQL-64" value="" style="curved=1;endArrow=classic;html=1;rounded=0;entryX=0.03;entryY=0.04;entryDx=0;entryDy=0;entryPerimeter=0;strokeColor=#0000CC;exitX=0.224;exitY=-0.023;exitDx=0;exitDy=0;exitPerimeter=0;" parent="1" source="xCHIgen64dAe4VgpeUQL-42" target="xCHIgen64dAe4VgpeUQL-42" edge="1">
          <mxGeometry width="50" height="50" relative="1" as="geometry">
            <mxPoint x="630" y="136" as="sourcePoint" />
            <mxPoint x="680" y="96" as="targetPoint" />
            <Array as="points">
              <mxPoint x="540" y="116" />
              <mxPoint x="520" y="100" />
              <mxPoint x="490" y="106" />
            </Array>
          </mxGeometry>
        </mxCell>
        <mxCell id="xCHIgen64dAe4VgpeUQL-65" value="&lt;span style=&quot;font-family: Calibri; font-size: 11.29px; background-color: rgb(255, 255, 255);&quot;&gt;Evidence&lt;/span&gt;" style="text;html=1;align=center;verticalAlign=middle;resizable=0;points=[];autosize=1;strokeColor=none;fillColor=none;fontSize=14;fontColor=#33001A;" parent="1" vertex="1">
          <mxGeometry x="660" y="51.5" width="60" height="20" as="geometry" />
        </mxCell>
        <mxCell id="xCHIgen64dAe4VgpeUQL-66" value="&lt;meta charset=&quot;utf-8&quot;&gt;&lt;span style=&quot;color: rgb(51, 0, 26); font-family: Calibri; font-size: 11.29px; font-style: normal; font-variant-ligatures: normal; font-variant-caps: normal; font-weight: 400; letter-spacing: normal; orphans: 2; text-align: center; text-indent: 0px; text-transform: none; widows: 2; word-spacing: 0px; -webkit-text-stroke-width: 0px; background-color: rgb(255, 255, 255); text-decoration-thickness: initial; text-decoration-style: initial; text-decoration-color: initial; float: none; display: inline !important;&quot;&gt;Evidence&lt;/span&gt;" style="text;whiteSpace=wrap;html=1;fontSize=14;fontColor=#33001A;" parent="1" vertex="1">
          <mxGeometry x="655" y="123" width="70" height="30" as="geometry" />
        </mxCell>
        <mxCell id="xCHIgen64dAe4VgpeUQL-67" value="&lt;span style=&quot;font-family: Calibri; font-size: 11.29px; background-color: rgb(255, 255, 255);&quot;&gt;derivedFrom&lt;/span&gt;" style="text;html=1;align=center;verticalAlign=middle;resizable=0;points=[];autosize=1;strokeColor=none;fillColor=none;fontSize=14;fontColor=#33001A;" parent="1" vertex="1">
          <mxGeometry x="430" y="80" width="80" height="30" as="geometry" />
        </mxCell>
        <mxCell id="xCHIgen64dAe4VgpeUQL-68" value="&lt;span style=&quot;font-family: Calibri; font-size: 11.29px; background-color: rgb(255, 255, 255);&quot;&gt;Canonical&lt;/span&gt;&lt;br style=&quot;font-family: Calibri; font-size: 11.29px; background-color: rgb(255, 255, 255);&quot;&gt;&lt;span style=&quot;font-family: Calibri; font-size: 11.29px; background-color: rgb(255, 255, 255);&quot;&gt;Questionnaire&lt;/span&gt;" style="text;html=1;align=center;verticalAlign=middle;resizable=0;points=[];autosize=1;strokeColor=none;fillColor=none;fontSize=14;fontColor=#33001A;" parent="1" vertex="1">
          <mxGeometry x="273" y="83" width="80" height="40" as="geometry" />
        </mxCell>
        <mxCell id="xCHIgen64dAe4VgpeUQL-69" value="&lt;span style=&quot;color: rgb(0, 0, 0); font-family: Calibri; font-size: 11.29px; background-color: rgb(255, 255, 255);&quot;&gt;Addresses&lt;/span&gt;" style="text;html=1;align=center;verticalAlign=middle;resizable=0;points=[];autosize=1;strokeColor=none;fillColor=none;fontSize=14;fontColor=#33001A;" parent="1" vertex="1">
          <mxGeometry x="377" y="317.5" width="60" height="20" as="geometry" />
        </mxCell>
        <mxCell id="xCHIgen64dAe4VgpeUQL-70" value="&lt;span style=&quot;color: rgb(0, 0, 0); font-family: Calibri; font-size: 11.29px; background-color: rgb(255, 255, 255);&quot;&gt;Addresses /&lt;/span&gt;&lt;br style=&quot;color: rgb(0, 0, 0); font-family: Calibri; font-size: 11.29px; background-color: rgb(255, 255, 255);&quot;&gt;&lt;span style=&quot;color: rgb(0, 0, 0); font-family: Calibri; font-size: 11.29px; background-color: rgb(255, 255, 255);&quot;&gt;OutcomeReference&lt;/span&gt;" style="text;html=1;align=center;verticalAlign=middle;resizable=0;points=[];autosize=1;strokeColor=none;fillColor=none;fontSize=14;fontColor=#33001A;" parent="1" vertex="1">
          <mxGeometry x="337" y="220" width="100" height="40" as="geometry" />
        </mxCell>
        <mxCell id="xCHIgen64dAe4VgpeUQL-71" value="&lt;span style=&quot;font-family: Calibri; font-size: 11.29px; background-color: rgb(255, 255, 255);&quot;&gt;derivedFrom&lt;/span&gt;" style="text;html=1;align=center;verticalAlign=middle;resizable=0;points=[];autosize=1;strokeColor=none;fillColor=none;fontSize=14;fontColor=#33001A;" parent="1" vertex="1">
          <mxGeometry x="380" y="124" width="80" height="30" as="geometry" />
        </mxCell>
        <mxCell id="xCHIgen64dAe4VgpeUQL-72" value="&lt;span style=&quot;font-family: Calibri; font-size: 11.29px; background-color: rgb(255, 255, 255);&quot;&gt;hasMember&lt;/span&gt;" style="text;html=1;align=center;verticalAlign=middle;resizable=0;points=[];autosize=1;strokeColor=none;fillColor=none;fontSize=14;fontColor=#33001A;" parent="1" vertex="1">
          <mxGeometry x="600" y="93" width="80" height="30" as="geometry" />
        </mxCell>
        <mxCell id="xCHIgen64dAe4VgpeUQL-73" value="" style="curved=1;endArrow=classic;html=1;rounded=0;entryX=0.03;entryY=0.04;entryDx=0;entryDy=0;entryPerimeter=0;strokeColor=#0000CC;" parent="1" edge="1">
          <mxGeometry width="50" height="50" relative="1" as="geometry">
            <mxPoint x="589" y="129" as="sourcePoint" />
            <mxPoint x="560" y="129" as="targetPoint" />
            <Array as="points">
              <mxPoint x="610" y="114" />
              <mxPoint x="610" y="100" />
              <mxPoint x="568" y="104" />
            </Array>
          </mxGeometry>
        </mxCell>
        <mxCell id="xCHIgen64dAe4VgpeUQL-74" value="&lt;div style=&quot;font-size: 1px&quot;&gt;&lt;font style=&quot;font-size: 11.29px; font-family: Calibri; direction: ltr; letter-spacing: 0px; line-height: 120%; opacity: 1;&quot;&gt;&lt;br&gt;&lt;/font&gt;&lt;/div&gt;" style="vsdxID=98;edgeStyle=none;startArrow=none;endArrow=block;startSize=5;endSize=5;strokeWidth=2;strokeColor=#0000CC;spacingTop=0;spacingBottom=0;spacingLeft=0;spacingRight=0;verticalAlign=middle;html=1;labelBackgroundColor=#ffffff;align=center;exitX=0.03;exitY=0.96;exitDx=0;exitDy=0;exitPerimeter=0;curved=1;" parent="1" source="xCHIgen64dAe4VgpeUQL-44" target="xCHIgen64dAe4VgpeUQL-41" edge="1">
          <mxGeometry x="0.0922" y="15" relative="1" as="geometry">
            <mxPoint as="offset" />
            <Array as="points">
              <mxPoint x="680" y="190" />
              <mxPoint x="440" y="190" />
            </Array>
            <mxPoint x="736" y="150" as="sourcePoint" />
            <mxPoint x="700" y="160" as="targetPoint" />
          </mxGeometry>
        </mxCell>
        <mxCell id="xCHIgen64dAe4VgpeUQL-75" value="&lt;meta charset=&quot;utf-8&quot;&gt;&lt;span style=&quot;color: rgb(51, 0, 26); font-family: Calibri; font-size: 11.29px; font-style: normal; font-variant-ligatures: normal; font-variant-caps: normal; font-weight: 400; letter-spacing: normal; orphans: 2; text-align: center; text-indent: 0px; text-transform: none; widows: 2; word-spacing: 0px; -webkit-text-stroke-width: 0px; background-color: rgb(255, 255, 255); text-decoration-thickness: initial; text-decoration-style: initial; text-decoration-color: initial; float: none; display: inline !important;&quot;&gt;Evidence&lt;/span&gt;" style="text;whiteSpace=wrap;html=1;fontSize=14;fontColor=#33001A;" parent="1" vertex="1">
          <mxGeometry x="519" y="182" width="70" height="30" as="geometry" />
        </mxCell>
      </root>
    </mxGraphModel>
  </diagram>
</mxfile>
